<?xml version="1.0" standalone="no"?>
<!DOCTYPE svg PUBLIC "-//W3C//DTD SVG 20010904//EN"
 "http://www.w3.org/TR/2001/REC-SVG-20010904/DTD/svg10.dtd">
<svg version="1.0" xmlns="http://www.w3.org/2000/svg"
 width="320.000000pt" height="320.000000pt" viewBox="0 0 320.000000 320.000000"
 preserveAspectRatio="xMidYMid meet">
<metadata>
Created by potrace 1.14, written by Peter Selinger 2001-2017
</metadata>
<g transform="translate(0.000000,320.000000) scale(0.100000,-0.100000)"
fill="#000000" stroke="none">
<path d="M1883 2845 c-6 -7 -9 -16 -6 -19 4 -3 1 -6 -5 -6 -7 0 -12 4 -12 10
0 5 -11 9 -24 8 -16 -2 -28 -13 -39 -36 -12 -27 -13 -32 -1 -28 7 3 16 2 18
-3 7 -11 -27 -10 -41 1 -8 7 -19 3 -34 -11 -13 -12 -18 -21 -12 -21 16 0 12
-38 -5 -45 -8 -3 -10 -10 -6 -17 6 -10 5 -10 -8 0 -13 10 -16 9 -21 -8 -3 -13
-1 -18 6 -13 7 4 0 -9 -15 -29 -15 -19 -30 -48 -34 -64 -4 -16 -10 -33 -14
-39 -5 -5 -7 -22 -5 -38 2 -15 -1 -25 -6 -21 -5 3 -9 -4 -9 -15 0 -12 -5 -21
-11 -21 -5 0 -8 -4 -4 -9 3 -6 -2 -14 -10 -19 -15 -8 -21 -51 -13 -97 2 -15
-2 -20 -17 -18 -19 1 -19 1 -2 -11 15 -12 16 -15 2 -26 -9 -7 -13 -15 -10 -18
3 -3 -4 -12 -15 -19 -13 -10 -19 -21 -15 -33 4 -11 -3 -27 -17 -42 -13 -13
-20 -19 -15 -14 4 6 7 17 6 26 0 9 -4 6 -10 -8 -5 -13 -13 -21 -17 -18 -5 3
-7 -6 -4 -19 2 -14 0 -25 -7 -25 -7 0 -8 -8 -1 -25 6 -16 6 -27 -2 -31 -7 -5
-8 -2 -3 7 6 11 5 11 -5 2 -10 -9 -9 -15 4 -29 22 -21 14 -29 -13 -13 -14 9
-19 22 -17 41 3 24 1 26 -15 17 -20 -10 -26 -29 -9 -29 6 0 10 -12 10 -27 0
-20 -3 -24 -9 -14 -5 8 -10 9 -12 3 -6 -16 -65 -20 -62 -4 2 6 -2 12 -8 12 -7
0 -9 -10 -5 -25 5 -18 3 -23 -8 -19 -8 3 -13 0 -13 -8 1 -7 -2 -13 -8 -13 -5
0 -8 8 -7 19 3 12 0 16 -9 11 -8 -5 -10 -4 -5 3 4 6 14 8 24 5 9 -3 14 -3 10
2 -11 12 -58 15 -58 3 0 -6 -7 -4 -17 3 -11 9 -14 10 -9 2 5 -9 2 -11 -9 -7
-9 4 -13 9 -11 12 3 3 1 11 -5 19 -9 10 -15 11 -26 1 -11 -9 -16 -9 -24 3 -8
14 -10 12 -13 -13 0 -6 -9 -12 -18 -14 -15 -2 -17 3 -11 24 6 24 5 26 -10 13
-9 -7 -14 -17 -11 -22 3 -5 2 -9 -3 -10 -4 0 -18 -2 -31 -5 -15 -3 -21 0 -17
7 4 6 14 8 22 5 8 -3 11 -1 8 5 -4 5 -16 7 -27 3 -14 -4 -18 -2 -14 5 9 15
-15 39 -33 33 -8 -3 -11 0 -7 6 3 6 2 13 -4 17 -5 3 -10 0 -10 -7 0 -10 -3 -9
-10 2 -5 9 -5 19 1 26 7 9 2 14 -21 19 -16 4 -28 11 -24 16 3 5 0 9 -6 9 -6 0
-8 5 -4 12 4 7 3 8 -4 4 -11 -6 -16 6 -13 27 1 9 -13 9 -22 0 -4 -3 3 -17 15
-30 18 -19 19 -23 5 -23 -9 0 -17 6 -17 13 0 6 -8 2 -18 -11 l-18 -23 -23 27
c-13 15 -17 25 -10 22 8 -3 23 -2 34 3 l20 8 -20 1 c-11 2 -23 2 -27 1 -4 0
-5 5 -2 13 4 10 -2 12 -19 9 -18 -4 -30 3 -47 24 -13 15 -21 21 -18 12 4 -9 1
-16 -7 -16 -11 0 -11 5 -4 19 13 24 4 50 -28 82 -14 14 -21 26 -15 26 7 0 7 9
-1 29 -9 25 -15 28 -51 27 -23 -1 -47 5 -55 12 -11 10 -16 10 -29 0 -9 -7 -13
-8 -10 -3 4 6 -3 12 -15 12 -15 2 -18 0 -9 -6 8 -5 14 -12 13 -17 0 -5 7 -8
14 -8 8 1 13 -2 10 -6 -3 -5 11 -18 30 -30 19 -12 34 -24 33 -28 -4 -14 14
-52 23 -52 6 0 7 -4 4 -10 -3 -5 2 -10 12 -10 15 0 16 -2 3 -10 -9 -6 -10 -10
-3 -10 6 0 10 -9 8 -19 -5 -25 30 -68 39 -49 3 7 4 3 2 -9 -3 -15 1 -23 10
-23 8 0 14 -10 14 -25 0 -14 5 -25 11 -25 5 0 7 -5 3 -11 -3 -6 -1 -14 5 -18
6 -4 13 -18 16 -31 5 -27 -9 -58 -19 -42 -4 6 -14 9 -24 6 -14 -5 -15 -4 -2 5
8 5 11 13 7 18 -12 11 -27 -19 -17 -33 14 -16 -1 -26 -18 -11 -13 10 -14 9 -3
-11 9 -17 19 -23 35 -20 22 4 25 -1 27 -59 1 -25 14 -31 22 -10 3 7 6 5 6 -5
1 -10 8 -18 16 -18 18 0 19 -12 3 -28 -7 -7 -8 -12 -4 -12 5 0 3 -7 -4 -15
-10 -12 -10 -15 1 -15 10 0 10 -3 1 -12 -8 -8 -15 -8 -28 3 -16 12 -17 12 -12
-3 4 -9 0 -24 -8 -35 -9 -10 -13 -12 -9 -5 3 6 4 12 0 12 -8 0 -47 -23 -67
-39 -10 -8 -18 -11 -18 -6 0 4 -7 2 -15 -5 -8 -7 -15 -9 -15 -5 0 4 -6 2 -14
-4 -11 -10 -15 -8 -19 6 -2 10 -4 2 -4 -17 0 -57 -2 -72 -12 -66 -5 3 -14 -1
-21 -9 -7 -8 -9 -15 -5 -15 4 0 2 -7 -5 -15 -11 -13 -10 -14 4 -9 12 5 15 2
10 -10 -4 -11 0 -16 13 -16 16 0 18 -6 15 -35 -2 -20 0 -35 6 -35 6 0 8 -9 5
-20 -3 -11 -9 -17 -14 -14 -5 3 -9 -1 -9 -9 0 -8 -7 -20 -15 -27 -8 -7 -15
-23 -15 -37 0 -16 -4 -22 -12 -18 -7 4 0 -5 17 -19 16 -14 33 -22 38 -17 14
14 47 0 47 -21 0 -15 -3 -17 -19 -9 -24 13 -37 -12 -16 -29 8 -7 13 -16 10
-20 -12 -20 91 -32 110 -13 17 16 28 17 19 1 -5 -10 -3 -10 7 0 8 7 14 17 14
22 0 6 3 10 8 10 13 0 48 41 42 50 -3 5 -1 12 5 15 6 4 10 3 9 -2 -3 -19 2
-23 20 -13 14 7 22 7 26 0 4 -6 11 -8 16 -5 14 9 11 -19 -3 -34 -10 -10 -8
-10 10 0 l23 14 -1 245 c-1 135 -1 268 -1 296 l1 50 83 0 c87 -1 137 -20 137
-51 0 -18 -12 -19 -29 -2 -11 10 -12 9 -5 -3 13 -24 12 -51 -2 -46 -9 3 -12
-5 -12 -25 1 -16 -2 -32 -5 -36 -4 -3 -7 12 -7 33 0 48 -14 64 -55 64 l-31 0
0 -140 -1 -140 27 0 c28 0 38 -27 16 -42 -7 -5 -4 -8 7 -8 10 0 15 -4 12 -10
-3 -5 -19 -10 -35 -10 l-28 0 2 -112 c1 -62 5 -118 8 -124 4 -6 4 -14 1 -18
-10 -10 -12 -36 -3 -36 5 0 10 5 12 12 3 9 6 9 12 0 4 -7 2 -12 -3 -12 -20 0
-11 -36 14 -60 13 -12 21 -28 18 -33 -4 -6 -10 -3 -14 9 -7 17 -8 17 -8 1 -1
-14 -7 -17 -23 -13 -13 3 -18 3 -12 0 7 -3 10 -13 7 -23 -3 -10 0 -22 6 -25 6
-4 11 -2 11 5 0 9 3 9 14 0 8 -6 20 -10 27 -9 9 2 14 -6 13 -19 0 -13 5 -23
13 -23 8 0 16 -7 19 -15 4 -8 10 -12 15 -9 5 3 9 -2 9 -12 0 -11 -6 -15 -18
-12 -12 4 -18 -1 -18 -13 0 -13 3 -15 13 -7 9 7 17 7 28 -2 10 -9 15 -9 15 -1
0 6 -5 11 -11 11 -5 0 -7 5 -4 10 3 6 10 10 14 10 12 0 10 -33 -3 -49 -8 -11
-8 -13 0 -8 7 4 19 -7 29 -26 11 -22 15 -25 12 -10 -3 13 -1 25 4 28 13 9 49
-18 49 -37 0 -9 5 -20 12 -24 7 -4 8 -3 4 4 -4 7 -2 12 5 12 7 0 9 -10 7 -25
-4 -17 -1 -25 8 -25 8 0 11 7 8 18 -5 14 -4 14 4 2 6 -8 8 -18 6 -22 -3 -4 3
-8 13 -9 14 0 14 -2 -4 -9 -31 -13 -29 -18 7 -15 17 1 30 0 30 -4 0 -4 12 -8
26 -9 19 -1 25 2 21 12 -3 8 2 16 14 19 17 5 19 9 9 26 -9 17 -8 21 4 21 20 0
29 -17 14 -23 -7 -3 -4 -6 7 -6 16 -1 17 -3 6 -10 -12 -8 -12 -12 -2 -25 7 -9
11 -24 9 -34 -3 -11 0 -19 7 -19 7 0 10 10 7 22 -3 16 2 24 20 29 l23 8 -25 8
c-14 4 -19 8 -12 9 6 1 12 8 12 16 0 8 5 15 11 15 6 0 8 -7 5 -16 -4 -11 -2
-15 7 -11 8 3 12 -4 11 -21 0 -15 -8 -29 -20 -33 -14 -6 -15 -8 -4 -9 8 -2 20
-2 27 -1 18 2 22 -13 7 -27 -8 -7 -14 -8 -14 -2 0 5 -5 10 -11 10 -8 0 -8 -4
0 -14 6 -8 10 -19 9 -24 -2 -6 6 -18 17 -26 16 -13 17 -15 3 -10 -30 10 -20
-16 20 -53 29 -28 32 -34 15 -28 -15 4 -23 2 -23 -5 0 -6 5 -8 10 -5 6 3 10
-2 10 -12 0 -13 3 -14 8 -5 6 9 14 6 29 -11 15 -17 20 -37 19 -70 -1 -25 3
-43 7 -40 5 3 7 -3 5 -13 -4 -21 20 -54 39 -54 7 0 10 6 7 14 -3 8 -1 17 5 21
16 9 13 22 -3 22 -8 0 -14 -5 -13 -10 1 -5 -4 -12 -12 -15 -10 -3 -12 0 -8 10
3 9 0 21 -6 27 -8 8 -6 11 7 11 26 0 56 -19 56 -36 0 -9 5 -12 13 -8 7 5 6 0
-3 -11 -9 -11 -10 -16 -2 -11 6 4 12 3 12 -1 0 -5 9 -9 21 -9 18 0 18 2 5 12
-16 11 -23 40 -8 30 5 -3 9 2 9 10 0 10 -7 14 -18 11 -20 -5 -34 19 -17 29 7
4 8 3 4 -4 -9 -15 -1 -15 25 -2 16 9 19 7 20 -12 1 -18 3 -15 10 11 6 18 8 36
5 39 -3 3 -6 -1 -6 -10 0 -18 -27 -20 -34 -1 -3 7 1 13 10 13 8 0 13 4 9 9 -3
5 0 13 6 17 8 4 9 3 5 -4 -4 -7 -3 -12 2 -12 6 0 13 7 16 15 4 11 -3 19 -19
25 -30 11 -34 34 -5 25 13 -4 20 -2 20 7 1 10 4 9 13 -2 7 -8 21 -22 31 -30
18 -13 19 -13 11 0 -5 8 -18 27 -28 42 -14 19 -18 35 -14 57 5 24 3 29 -8 24
-8 -3 -15 0 -15 7 0 6 5 8 10 5 15 -9 12 2 -6 30 -10 15 -12 25 -5 25 6 0 14
0 19 0 4 0 7 -8 7 -18 1 -19 34 -18 48 1 6 8 7 5 3 -6 -4 -12 -2 -17 6 -14 7
2 12 10 10 17 -2 9 6 11 28 6 22 -4 29 -2 24 6 -4 7 -3 8 5 4 6 -4 9 -12 6
-17 -4 -5 -1 -9 4 -9 6 0 3 -9 -6 -19 -9 -11 -22 -17 -29 -14 -8 3 -14 -2 -14
-11 0 -9 3 -16 8 -17 4 0 15 -2 25 -4 14 -3 16 0 8 9 -13 15 -4 26 20 26 12 0
16 5 13 15 -4 8 -1 15 5 15 6 0 11 7 11 15 0 8 -5 15 -11 15 -5 0 -7 -5 -4
-10 3 -5 1 -10 -4 -10 -14 0 -14 13 1 28 15 15 29 16 26 1 -2 -6 7 -12 19 -14
18 -1 20 1 12 17 -5 10 -16 18 -24 18 -8 0 -15 7 -15 15 0 9 -6 15 -12 14 -33
-4 -42 1 -24 14 9 7 16 18 14 24 -2 6 2 10 7 9 6 0 9 -4 7 -8 -1 -5 3 -8 9 -8
5 0 7 -6 3 -13 -5 -9 -4 -9 6 0 11 10 16 9 27 -5 12 -16 13 -16 6 2 -5 14 -3
17 7 11 9 -5 11 -4 6 4 -4 6 -12 8 -18 5 -8 -5 -9 -1 -4 12 13 32 15 55 5 49
-5 -4 -9 -1 -9 4 0 6 -8 11 -17 11 -15 0 -16 -2 -3 -10 8 -5 12 -12 8 -15 -3
-3 -12 0 -19 8 -8 8 -21 16 -29 20 -9 3 -2 6 15 7 l30 1 -29 16 c-28 15 -29
16 -10 29 44 30 50 39 31 42 -9 2 -17 7 -17 12 0 5 6 7 14 4 10 -4 12 2 9 20
-4 21 -1 26 13 26 16 0 17 -2 4 -10 -13 -9 -13 -11 0 -20 11 -7 17 -4 25 13 6
12 16 23 23 25 17 3 15 -9 -5 -24 -17 -12 -17 -14 0 -31 10 -10 17 -13 17 -5
0 7 -5 12 -12 12 -6 0 -8 3 -5 6 4 4 14 1 22 -6 14 -12 15 -9 10 18 -3 21 -1
32 6 32 7 0 5 8 -6 20 -19 21 -7 28 13 8 9 -9 12 -9 12 0 0 7 -5 12 -11 12 -5
0 -8 4 -5 9 3 5 -2 15 -12 22 -15 13 -16 12 -3 -4 11 -14 11 -17 -1 -17 -8 0
-18 3 -21 7 -11 10 13 32 29 26 8 -3 14 0 14 6 0 6 8 8 18 4 9 -3 13 -2 9 3
-5 5 -39 7 -77 5 -89 -4 -113 4 -104 32 9 28 36 49 49 36 24 -24 89 -2 78 26
-2 7 5 16 16 20 12 3 21 12 21 20 0 8 9 16 20 19 11 3 30 9 41 12 16 5 20 3
13 -7 -7 -12 -5 -12 9 -1 9 8 21 11 27 7 5 -3 10 1 10 9 0 9 5 16 10 16 6 0
10 -3 10 -7 0 -9 52 -35 57 -29 2 2 -3 11 -12 20 -9 9 -12 16 -7 16 5 0 12 -3
16 -7 3 -4 16 -8 28 -10 18 -3 19 -1 7 14 -13 17 -13 17 5 3 10 -8 23 -15 30
-17 37 -8 49 -7 51 8 2 10 -4 16 -14 15 -11 -1 -16 7 -16 29 0 28 -3 31 -30
28 -16 -2 -24 0 -17 3 6 3 12 13 13 22 0 11 2 12 6 5 2 -7 12 -13 20 -13 13 0
13 3 3 15 -14 17 0 21 17 4 7 -7 15 2 27 30 17 44 26 49 50 26 17 -17 36 -20
36 -4 0 5 -6 7 -12 4 -7 -4 -4 1 6 9 25 20 43 20 43 1 0 -8 -4 -15 -9 -15 -4
0 -8 -5 -8 -12 0 -9 3 -9 11 -1 6 6 19 9 28 6 14 -4 14 -3 1 6 -13 9 -13 11 2
11 23 0 32 17 12 24 -8 3 -12 2 -9 -4 3 -6 3 -10 -2 -10 -4 0 -16 14 -25 31
-10 16 -13 27 -8 24 6 -3 10 -1 10 4 0 6 -8 11 -17 12 -11 0 -13 3 -5 6 6 2 9
10 6 15 -5 7 -2 8 7 2 27 -17 42 -14 24 6 -15 17 -15 18 2 16 10 0 17 5 15 12
-1 9 6 11 25 6 18 -3 23 -2 15 3 -10 7 -8 13 7 27 19 17 19 17 15 -16 -2 -21
-1 -27 4 -15 4 10 11 18 15 18 22 -3 28 0 22 9 -4 6 -11 8 -16 5 -5 -4 -9 -2
-9 3 0 6 7 13 16 16 8 3 13 10 9 15 -3 5 0 13 6 17 8 4 9 3 5 -4 -4 -7 -2 -12
3 -12 6 0 11 7 11 15 0 8 4 15 9 15 5 0 7 -9 4 -19 -4 -15 0 -20 16 -18 21 1
30 17 10 17 -8 0 -9 4 0 13 6 8 7 18 3 23 -4 4 0 3 9 -4 9 -6 20 -8 24 -4 5 4
5 -2 1 -13 -5 -15 -4 -17 4 -9 9 9 8 17 -1 32 -17 27 -9 34 35 34 28 0 33 3
28 17 -5 14 -4 15 13 1 11 -9 16 -10 11 -2 -4 6 -3 12 3 12 5 0 12 -4 16 -9 8
-14 42 -9 42 6 0 6 -4 10 -8 7 -4 -2 0 10 9 28 22 44 23 58 4 51 -11 -5 -13
-3 -6 8 12 20 14 40 3 33 -5 -3 -6 -11 -3 -17 4 -7 3 -9 -1 -4 -13 12 -13 46
0 41 6 -3 12 2 12 11 0 9 -6 14 -14 11 -7 -3 -13 1 -13 9 0 8 -5 15 -12 15 -6
0 -9 3 -5 6 6 6 13 5 41 -7 5 -2 11 6 12 19 4 23 -10 30 -22 11 -3 -6 -17 -8
-30 -5 -17 5 -23 2 -22 -6 2 -7 -8 -14 -23 -16 -18 -2 -26 2 -26 12 0 19 13
21 20 4 4 -8 8 -5 12 9 4 12 13 19 20 17 16 -7 72 40 72 61 0 13 -2 13 -18 -1
-10 -9 -16 -22 -12 -28 4 -6 -1 -5 -10 3 -12 9 -17 10 -17 2 0 -7 -4 -9 -10
-6 -5 3 -10 2 -10 -4 0 -6 -7 -8 -16 -4 -9 3 -20 0 -25 -8 -7 -11 -9 -9 -9 6
0 12 -3 16 -8 9 -8 -12 -47 -12 -59 0 -5 4 -3 6 2 5 6 -2 28 1 50 5 22 5 55 9
73 9 30 0 42 10 25 20 -5 2 -3 2 4 1 6 -2 14 4 17 13 4 10 2 13 -8 10 -8 -3
-13 1 -12 10 0 9 -5 18 -13 21 -8 3 -11 0 -7 -7 4 -6 3 -11 -3 -11 -5 0 -12 6
-14 13 -4 8 -6 7 -6 -4 -1 -8 5 -21 12 -28 10 -11 8 -11 -11 -2 -12 7 -27 9
-34 5 -20 -13 -78 -13 -78 -1 0 7 -7 3 -15 -7 -8 -11 -15 -14 -15 -7 0 7 -5 9
-11 5 -8 -5 -9 -2 -2 11 11 19 6 55 -7 55 -4 0 -6 -11 -5 -25 2 -14 -2 -28 -7
-32 -7 -4 -8 -1 -3 7 6 9 4 12 -7 8 -11 -5 -14 0 -10 19 3 18 1 24 -7 19 -6
-4 -11 -1 -11 6 0 7 -6 25 -14 39 -7 15 -12 42 -10 60 3 24 1 30 -5 19 -6 -8
-8 -17 -5 -21 2 -4 -1 -11 -8 -15 -7 -4 -10 -4 -6 1 4 4 0 14 -10 22 -11 8
-12 12 -3 11 7 -2 15 5 16 15 2 11 -1 14 -8 10 -27 -17 -39 -11 -20 9 10 12
12 18 6 14 -8 -4 -13 -2 -13 5 0 10 -3 10 -12 1 -17 -17 -31 -15 -24 3 5 13 2
13 -19 -1 -14 -9 -25 -21 -25 -28 0 -6 5 -4 11 4 9 13 10 13 6 0 -2 -10 -14
-14 -33 -13 -23 1 -30 -3 -31 -18 -1 -10 3 -19 8 -19 6 0 7 5 4 10 -3 6 -2 10
3 10 5 0 10 -21 10 -46 2 -49 -17 -80 -44 -70 -9 3 -12 2 -9 -5 4 -6 -1 -17
-11 -24 -26 -20 -33 -18 -27 4 3 10 0 22 -6 25 -6 4 -11 13 -11 21 0 14 16 15
38 2 7 -5 12 -3 12 7 0 9 5 15 11 13 6 -1 12 7 14 19 1 16 -4 20 -22 18 -13
-1 -23 2 -23 7 0 5 -7 9 -16 9 -9 0 -12 -5 -8 -12 4 -8 3 -10 -2 -5 -12 11
-12 30 -1 38 5 4 4 17 -3 30 -7 13 -9 21 -5 17 5 -4 15 -2 23 5 13 10 14 8 9
-15 -6 -22 -4 -25 12 -21 13 3 17 11 13 29 -2 13 -8 21 -13 18 -5 -3 -9 1 -9
8 0 10 -2 10 -9 -1 -5 -8 -23 -14 -40 -14 -17 0 -31 -4 -31 -9 0 -4 -5 -8 -11
-8 -5 0 -8 4 -5 8 3 5 -1 9 -9 9 -8 0 -12 -4 -9 -9 3 -4 0 -8 -6 -8 -7 0 -9
-7 -6 -16 5 -14 4 -15 -9 -4 -8 7 -15 8 -15 2 0 -5 -7 -13 -16 -16 -10 -4 -13
-2 -8 7 4 6 4 9 -1 5 -10 -10 -37 11 -29 23 3 5 -1 15 -9 23 -11 12 -15 11
-27 -8 -12 -19 -12 -20 3 -8 10 9 17 10 22 2 3 -5 -1 -13 -9 -16 -9 -3 -13
-11 -9 -17 3 -5 1 -7 -4 -4 -18 11 -23 -21 -6 -34 13 -11 18 -10 34 10 11 13
19 19 19 15 -1 -15 -50 -70 -50 -56 0 6 -4 11 -9 10 -5 -2 -10 2 -11 7 -1 6
-6 20 -11 33 -7 17 -5 22 7 22 9 0 14 6 11 13 -2 6 -11 11 -21 9 -10 -2 -16 4
-16 15 0 10 4 14 8 8 12 -17 35 -17 28 0 -3 9 -2 14 3 11 4 -3 13 6 19 19 9
20 9 25 -2 25 -8 0 -17 -8 -20 -17 -3 -10 -4 -6 -2 10 3 24 -4 32 -27 28 -5
-1 -6 3 -2 9 8 13 -14 42 -25 35 -4 -3 -11 2 -14 11 -4 10 -2 13 7 9 6 -4 3 0
-7 9 -10 8 -23 13 -27 10 -5 -3 -17 -1 -26 5 -16 8 -14 11 12 21 17 6 38 12
47 13 16 1 16 2 0 18 -9 9 -19 15 -21 13 -8 -7 -31 18 -25 27 3 5 -11 24 -31
43 -24 23 -33 39 -29 51 4 10 1 20 -6 25 -8 5 -15 16 -16 24 -1 9 1 14 6 11 4
-3 13 2 20 10 10 12 9 15 -6 16 -18 0 -18 1 0 8 13 5 16 10 8 15 -8 4 -8 14
-2 31 12 32 -3 33 -33 2 -12 -13 -16 -15 -8 -5 8 10 10 18 5 18 -5 0 -2 5 6
10 10 6 11 12 5 19 -6 6 -14 5 -22 -4z m44 -238 c0 -21 -23 -23 -30 -3 -4 11
-1 13 11 10 15 -5 15 -4 0 9 -10 8 -18 20 -18 27 0 9 6 7 18 -6 10 -11 19 -27
19 -37z m57 -79 c-5 -8 -2 -9 10 -5 10 4 15 3 11 -3 -9 -14 -35 -12 -36 3 0 6
-4 3 -8 -7 -8 -20 -8 -20 -13 0 -4 15 0 20 19 22 16 1 22 -2 17 -10z m-49 -18
c-3 -5 -12 -10 -18 -10 -7 0 -6 4 3 10 19 12 23 12 15 0z m75 -73 c0 -8 -4 -7
-12 1 -9 9 -15 9 -27 -1 -14 -10 -14 -10 -3 5 14 17 42 14 42 -5z m-14 -39
c-1 -12 -9 -24 -16 -26 -9 -3 -11 1 -5 14 4 11 8 24 8 31 0 7 4 10 9 7 4 -3 6
-15 4 -26z m-26 2 c0 -5 -2 -10 -4 -10 -3 0 -8 5 -11 10 -3 6 -1 10 4 10 6 0
11 -4 11 -10z m60 -38 c0 -4 -9 -8 -21 -9 -17 -2 -18 1 -9 12 12 14 30 12 30
-3z m114 -91 c3 -5 -1 -14 -8 -20 -12 -10 -13 -8 -9 8 6 23 9 25 17 12z m-90
-43 c-3 -4 3 -5 13 -2 16 5 16 4 -1 -10 -19 -15 -19 -16 0 -22 10 -4 27 -14
38 -23 10 -9 20 -15 22 -13 3 1 11 -4 19 -12 10 -9 11 -17 5 -21 -6 -3 -13 1
-16 9 -3 9 -10 13 -15 10 -5 -3 -9 0 -9 5 0 6 -7 11 -16 11 -8 0 -12 5 -9 10
3 6 1 10 -4 10 -16 0 -13 -29 4 -46 8 -8 17 -15 20 -14 3 0 5 -2 5 -5 0 -3 0
-10 0 -17 0 -6 -6 -3 -14 8 -11 14 -26 19 -64 19 -28 0 -48 -3 -46 -6 6 -11
-43 -17 -58 -8 -10 7 -10 9 2 9 12 0 12 2 1 9 -9 6 -10 11 -3 15 6 4 10 22 8
41 -2 25 1 32 9 25 7 -6 19 -4 33 6 20 13 21 13 16 -1 -3 -8 -1 -15 5 -15 11
0 14 11 12 40 0 10 1 11 5 3 6 -14 25 -18 23 -5 -3 19 2 26 10 12 6 -8 7 -18
5 -22z m105 -25 c-12 -15 -12 -16 4 -10 19 7 24 -8 6 -19 -6 -3 -15 -1 -19 6
-10 16 -2 40 12 40 6 0 4 -8 -3 -17z m-1434 -23 c3 -5 -1 -10 -10 -10 -9 0
-13 5 -10 10 3 6 8 10 10 10 2 0 7 -4 10 -10z m1458 -25 c-3 -9 -8 -14 -10
-11 -3 3 -2 9 2 15 9 16 15 13 8 -4z m287 -19 c0 -8 -7 -16 -15 -20 -13 -4
-14 -2 -5 14 13 23 20 26 20 6z m-450 -53 c0 -12 3 -13 14 -4 10 9 15 8 19 -3
8 -20 -10 -31 -27 -17 -7 6 -17 7 -21 3 -5 -4 -5 -2 -1 5 12 22 -16 25 -45 4
-37 -28 -44 -27 -22 3 10 13 21 22 25 19 5 -2 16 0 25 6 21 11 33 6 33 -16z
m-97 0 c4 -3 0 -15 -10 -25 -15 -17 -15 -18 10 -18 15 0 27 4 27 9 0 5 9 11
20 14 11 3 18 1 14 -4 -3 -5 2 -9 10 -9 9 0 16 -5 16 -11 0 -5 -4 -8 -9 -5 -8
5 -26 -21 -23 -35 0 -3 -6 -6 -14 -6 -18 0 -18 6 2 28 15 16 14 17 -8 12 -12
-4 -25 -9 -28 -13 -3 -4 -16 4 -30 16 -20 20 -21 24 -8 24 11 0 15 5 12 15 -6
15 7 21 19 8z m112 -52 c3 -5 2 -12 -3 -15 -5 -3 -9 1 -9 9 0 17 3 19 12 6z
m561 -6 c-13 -10 -15 -15 -6 -15 7 0 11 -3 7 -6 -3 -3 -11 -3 -18 2 -9 5 -7
11 6 21 11 7 21 13 24 13 3 0 -3 -7 -13 -15z m53 -6 c10 -4 9 -8 -5 -19 -11
-9 -15 -10 -10 -2 4 6 2 12 -3 12 -6 0 -11 8 -11 18 0 10 3 13 8 6 4 -6 13
-13 21 -15z m46 -19 c3 -6 -1 -7 -9 -4 -18 7 -21 14 -7 14 6 0 13 -4 16 -10z
m-128 -6 c-3 -3 -12 -4 -19 -1 -8 3 -5 6 6 6 11 1 17 -2 13 -5z m-564 -19 c-3
-9 -8 -14 -10 -11 -3 3 -2 9 2 15 9 16 15 13 8 -4z m-798 -43 c-3 -3 -11 0
-18 7 -9 10 -8 11 6 5 10 -3 15 -9 12 -12z m135 8 c0 -5 -2 -10 -4 -10 -3 0
-8 5 -11 10 -3 6 -1 10 4 10 6 0 11 -4 11 -10z m1438 -7 c16 -16 16 -16 0 -10
-10 3 -20 2 -23 -3 -6 -9 -31 -8 -41 3 -4 4 2 7 14 7 12 0 22 5 22 10 0 15 9
12 28 -7z m59 -55 c1 -11 -5 -27 -13 -36 -11 -10 -12 -18 -5 -25 18 -18 12
-31 -6 -15 -10 9 -24 13 -30 11 -7 -3 -13 -1 -13 4 0 5 6 15 13 22 10 10 9 11
-4 6 -9 -3 -22 1 -29 10 -14 17 -14 17 19 31 43 18 67 15 68 -8z m-2082 -9
c11 -17 -1 -21 -15 -4 -8 9 -8 15 -2 15 6 0 14 -5 17 -11z m1975 1 c0 -5 -5
-10 -11 -10 -5 0 -7 5 -4 10 3 6 8 10 11 10 2 0 4 -4 4 -10z m-658 -80 c25
-31 26 -191 1 -211 -13 -11 -17 -12 -21 -1 -3 10 -7 9 -16 -3 -9 -13 -12 -3
-14 52 -4 90 -5 98 -21 117 -17 20 -45 20 -65 0 -13 -13 -16 -46 -17 -202 0
-103 -3 -180 -6 -172 -4 8 -12 21 -20 28 -9 10 -10 19 -3 33 8 14 7 19 -1 19
-8 0 -8 4 1 15 7 8 9 15 5 15 -4 0 -1 8 6 17 12 15 12 16 -1 8 -13 -8 -13 -7
-1 8 11 13 11 17 1 17 -8 0 -10 3 -7 6 11 11 -14 46 -29 40 -10 -4 -14 3 -14
24 0 18 5 29 12 27 15 -2 22 35 14 69 -4 15 -11 22 -18 18 -16 -10 -3 66 15
83 18 19 94 30 142 22 22 -4 47 -17 57 -29z m-532 17 c0 -7 -5 -18 -12 -25 -7
-7 -8 -12 -2 -12 6 0 11 -7 11 -15 0 -11 -4 -12 -11 -5 -5 5 -18 10 -27 10
-14 0 -49 39 -49 55 0 3 20 5 45 5 30 0 45 -4 45 -13z m1264 -18 c-3 -5 -2 -9
3 -8 17 3 33 -1 33 -9 0 -4 -8 -8 -17 -8 -10 -1 -26 -5 -37 -9 -16 -7 -17 -6
-7 13 9 17 9 22 -1 22 -9 0 -9 3 2 9 16 11 33 4 24 -10z m-1230 -80 c-3 -5 -1
-9 5 -9 6 0 4 -11 -3 -25 -12 -23 -14 -96 -5 -134 2 -7 -2 -16 -8 -18 -10 -4
-13 21 -13 101 0 89 2 105 15 100 8 -4 12 -10 9 -15z m405 -96 c0 -35 -1 -36
-10 -14 -5 14 -7 31 -5 38 10 24 16 13 15 -24z m471 -108 c-7 -9 -15 -13 -19
-10 -3 3 1 10 9 15 21 14 24 12 10 -5z m-1407 -121 c12 -16 16 -31 11 -42 -4
-9 -6 -21 -5 -27 2 -5 5 -18 7 -29 2 -10 13 -36 24 -58 12 -24 20 -58 20 -88
l0 -50 -35 0 c-40 0 -38 -11 -35 187 1 51 -4 101 -10 113 -15 28 1 24 23 -6z
m1312 16 c3 -5 1 -10 -4 -10 -6 0 -11 5 -11 10 0 6 2 10 4 10 3 0 8 -4 11 -10z
m-312 -19 c-4 -3 -11 -10 -15 -15 -5 -5 -8 0 -8 12 0 15 4 20 16 15 9 -3 12
-9 7 -12z m-124 -119 c-1 -90 -10 -130 -22 -97 -4 9 -3 13 3 10 6 -4 10 5 10
20 0 17 -4 24 -12 19 -7 -4 -8 -3 -4 4 11 18 16 52 8 52 -4 0 -8 9 -9 20 -1
11 2 18 6 15 5 -2 7 7 5 20 -1 14 2 25 7 25 5 0 9 -40 8 -88z m-919 -82 c10
-19 10 -20 -9 -8 -11 6 -17 16 -15 20 8 12 12 10 24 -12z m30 -160 c0 -5 -5
-10 -11 -10 -5 0 -7 5 -4 10 3 6 8 10 11 10 2 0 4 -4 4 -10z m-23 -32 c-6 -4
-16 -3 -23 2 -6 6 -14 7 -17 3 -4 -3 -7 -1 -7 5 0 16 23 20 42 8 12 -7 14 -12
5 -18z m40 -40 c-3 -8 -6 -5 -6 6 -1 11 2 17 5 13 3 -3 4 -12 1 -19z m640
-278 c10 -27 11 -40 3 -35 -5 3 -13 -3 -19 -12 -8 -14 -9 -5 -6 32 4 60 5 64
12 45 2 -8 7 -22 10 -30z m-58 -8 c0 -15 -1 -15 -8 1 -6 17 -8 16 -20 -7 -8
-14 -17 -23 -22 -21 -4 3 2 16 14 29 23 26 37 25 36 -2z m31 18 c0 -5 -4 -10
-10 -10 -5 0 -10 5 -10 10 0 6 5 10 10 10 6 0 10 -4 10 -10z m-144 -56 c-3 -8
-1 -14 4 -14 5 0 12 -10 16 -22 3 -12 14 -29 22 -38 14 -14 15 -13 9 3 -5 13
-1 17 16 17 15 0 18 -3 10 -8 -7 -5 -14 -20 -15 -34 -2 -22 -5 -24 -19 -15
-10 6 -22 21 -28 34 -6 13 -22 28 -36 35 -28 13 -29 16 -14 38 9 13 10 12 5
-3 -3 -10 -2 -15 4 -12 5 3 14 -4 20 -16 7 -11 14 -18 17 -15 3 3 0 13 -7 22
-16 18 -21 56 -8 48 5 -4 7 -12 4 -20z m199 -24 c-3 -5 -13 -10 -21 -10 -8 0
-12 5 -9 10 3 6 13 10 21 10 8 0 12 -4 9 -10z m-193 -72 c-5 -5 -16 -6 -25 -2
-13 4 -14 9 -4 19 9 9 16 10 25 2 7 -6 9 -14 4 -19z m144 3 c-14 -5 -16 -10
-7 -15 6 -4 18 -3 26 4 8 7 15 7 19 1 4 -5 0 -13 -8 -18 -8 -4 -16 -19 -18
-33 -4 -23 -5 -23 -12 -5 -4 11 -12 29 -17 40 -9 19 -9 18 -5 -2 2 -13 0 -23
-4 -23 -5 0 -10 8 -12 18 -4 19 19 42 42 41 10 0 8 -3 -4 -8z m-108 -33 c17
-17 15 -38 -5 -38 -9 0 -13 3 -10 6 3 4 2 15 -4 25 -11 21 1 25 19 7z m65 -51
c3 -8 -3 -14 -14 -14 -11 -1 -19 5 -19 13 0 18 26 19 33 1z m52 -17 c10 -11
16 -20 13 -20 -3 0 -13 9 -23 20 -10 11 -16 20 -13 20 3 0 13 -9 23 -20z m-5
-40 c0 -5 -4 -10 -10 -10 -5 0 -10 5 -10 10 0 6 5 10 10 10 6 0 10 -4 10 -10z"/>
<path d="M2020 2199 c-7 -11 -10 -23 -7 -25 2 -2 9 7 15 21 14 30 7 33 -8 4z"/>
<path d="M2780 1880 c-13 -8 -12 -10 3 -10 9 0 17 5 17 10 0 12 -1 12 -20 0z"/>
<path d="M2805 1860 c-3 -6 1 -7 9 -4 18 7 21 14 7 14 -6 0 -13 -4 -16 -10z"/>
<path d="M1941 2797 c-8 -10 -7 -14 4 -14 8 0 15 6 15 14 0 7 -2 13 -4 13 -2
0 -9 -6 -15 -13z"/>
<path d="M1915 2710 c-3 -6 1 -7 9 -4 18 7 21 14 7 14 -6 0 -13 -4 -16 -10z"/>
<path d="M1650 2630 c0 -5 5 -10 11 -10 5 0 7 5 4 10 -3 6 -8 10 -11 10 -2 0
-4 -4 -4 -10z"/>
<path d="M890 2519 c0 -5 9 -9 21 -9 13 0 18 -4 13 -12 -4 -7 -3 -9 1 -5 18
15 12 32 -11 33 -13 1 -24 -2 -24 -7z"/>
<path d="M2010 2489 c0 -5 5 -7 10 -4 6 3 10 8 10 11 0 2 -4 4 -10 4 -5 0 -10
-5 -10 -11z"/>
<path d="M1015 2450 c-4 -6 -11 -7 -17 -4 -7 4 -8 2 -4 -5 6 -9 11 -9 21 -1 8
7 20 8 26 4 8 -4 9 -3 5 4 -9 15 -23 15 -31 2z"/>
<path d="M800 2423 l-25 -24 27 10 c22 8 29 6 42 -12 15 -21 15 -21 4 8 -17
44 -21 45 -48 18z"/>
<path d="M655 2360 c3 -5 13 -10 21 -10 8 0 12 5 9 10 -3 6 -13 10 -21 10 -8
0 -12 -4 -9 -10z"/>
<path d="M786 2344 c-6 -15 -4 -15 11 -3 10 7 20 15 22 16 2 2 -3 3 -11 3 -9
0 -19 -7 -22 -16z"/>
<path d="M976 2328 c-5 -16 -6 -35 -2 -43 6 -17 36 -21 36 -5 0 6 -6 10 -12
10 -9 0 -8 4 2 10 9 6 10 10 3 10 -6 0 -13 10 -16 23 -3 21 -4 20 -11 -5z"/>
<path d="M2863 2333 c0 -7 5 -9 10 -6 6 3 7 1 3 -5 -4 -7 -18 -12 -32 -12 -14
0 -27 -6 -30 -14 -3 -8 -19 -19 -35 -25 -16 -5 -28 -14 -27 -18 2 -4 -1 -8 -7
-8 -5 0 -9 5 -9 11 1 6 -5 11 -12 11 -8 0 -12 -3 -9 -5 3 -3 -2 -16 -10 -29
-9 -13 -12 -23 -7 -23 5 0 9 -7 9 -15 0 -8 -4 -15 -9 -15 -4 0 -8 6 -8 14 0 8
-6 17 -12 19 -9 4 -8 6 2 6 13 1 13 3 0 12 -12 9 -11 10 5 4 16 -5 17 -4 8 6
-10 9 -15 10 -27 0 -11 -9 -16 -9 -22 0 -4 8 -3 9 4 5 8 -5 10 -2 6 8 -8 22
-27 8 -21 -15 3 -10 0 -20 -7 -23 -6 -2 -1 -5 12 -5 15 -1 21 -5 16 -13 -5 -7
-2 -9 9 -5 11 4 15 1 12 -13 -2 -12 1 -17 9 -14 7 3 13 -2 14 -11 1 -8 3 -21
4 -28 1 -8 7 -14 15 -14 9 0 10 4 3 12 -8 9 -6 15 6 19 9 4 19 4 22 1 3 -3 0
-5 -6 -5 -6 0 -9 -7 -5 -16 5 -13 7 -13 14 -2 7 10 9 9 9 -4 0 -9 5 -20 12
-24 7 -4 8 -3 4 4 -4 7 -2 12 4 12 6 0 9 4 6 9 -8 12 24 47 51 55 29 9 47 32
33 41 -6 4 -9 3 -8 -2 2 -4 0 -9 -4 -10 -5 -2 -8 -1 -8 2 0 3 0 10 0 16 0 6 7
8 15 5 8 -3 21 -8 28 -11 8 -3 14 1 15 10 1 8 3 22 4 30 1 8 5 12 10 9 4 -3 8
0 8 7 0 6 8 9 20 6 11 -3 18 -1 14 4 -3 5 -16 9 -29 9 -13 0 -27 5 -30 10 -4
6 -12 7 -18 4 -9 -5 -9 -3 0 6 8 8 17 10 26 4 7 -5 5 -2 -5 7 -9 9 -15 18 -13
21 2 2 -4 4 -14 4 -10 0 -18 -6 -18 -13z"/>
<path d="M1533 2308 c-13 -6 -23 -15 -23 -20 0 -5 10 -2 23 7 13 8 27 12 32 8
4 -5 5 -2 1 5 -4 6 -8 12 -9 11 -1 0 -12 -5 -24 -11z"/>
<path d="M2398 2303 c6 -2 9 -10 6 -15 -4 -7 -2 -8 4 -4 7 4 12 2 12 -5 0 -7
3 -9 6 -6 9 8 -15 37 -30 36 -7 0 -6 -2 2 -6z"/>
<path d="M1525 2240 c-10 -11 -16 -22 -13 -25 3 -3 13 6 22 20 20 30 16 32 -9
5z"/>
<path d="M866 2209 c2 -4 1 -9 -3 -12 -5 -2 -2 -2 5 0 23 5 34 -7 21 -23 -10
-12 -9 -13 5 -8 9 3 16 1 16 -6 0 -6 4 -9 9 -6 22 14 -6 66 -34 64 -13 -1 -22
-5 -19 -9z"/>
<path d="M800 2200 c-9 -6 -10 -10 -3 -10 6 0 15 5 18 10 8 12 4 12 -15 0z"/>
<path d="M2886 2184 c-11 -7 -16 -17 -13 -21 4 -4 15 1 24 10 22 21 14 30 -11
11z"/>
<path d="M1480 2176 c0 -2 7 -6 15 -10 8 -3 15 -1 15 4 0 6 -7 10 -15 10 -8 0
-15 -2 -15 -4z"/>
<path d="M2335 2151 c-6 -11 13 -26 22 -17 4 3 1 6 -6 6 -7 0 -9 5 -6 10 3 6
4 10 1 10 -3 0 -7 -4 -11 -9z"/>
<path d="M2991 2131 c-13 -10 -17 -18 -10 -17 8 0 22 8 32 18 22 23 9 23 -22
-1z"/>
<path d="M1368 2133 c7 -3 16 -2 19 1 4 3 -2 6 -13 5 -11 0 -14 -3 -6 -6z"/>
<path d="M1016 2085 c-3 -8 -1 -15 4 -15 6 0 10 7 10 15 0 8 -2 15 -4 15 -2 0
-6 -7 -10 -15z"/>
<path d="M1320 2081 c0 -5 5 -13 10 -16 6 -3 10 -2 10 4 0 5 -4 13 -10 16 -5
3 -10 2 -10 -4z"/>
<path d="M1350 2080 c0 -5 5 -10 11 -10 5 0 7 5 4 10 -3 6 -8 10 -11 10 -2 0
-4 -4 -4 -10z"/>
<path d="M2967 2083 c-10 -9 -9 -23 1 -23 5 0 9 7 9 15 0 17 -1 18 -10 8z"/>
<path d="M621 2044 c0 -11 3 -14 6 -6 3 7 2 16 -1 19 -3 4 -6 -2 -5 -13z"/>
<path d="M1120 2051 c0 -6 4 -13 10 -16 6 -3 7 1 4 9 -7 18 -14 21 -14 7z"/>
<path d="M2953 2031 c-3 -12 -10 -21 -15 -21 -5 0 -6 -4 -3 -10 3 -6 -1 -7 -9
-4 -9 3 -16 1 -16 -5 0 -6 5 -11 11 -11 5 0 7 -6 3 -12 -6 -10 -4 -10 8 0 10
8 17 9 20 3 1 -6 8 1 15 14 6 14 7 23 2 19 -13 -7 -11 10 2 23 8 8 8 13 -1 18
-7 4 -14 -1 -17 -14z"/>
<path d="M1355 2030 c3 -5 8 -10 11 -10 2 0 4 5 4 10 0 6 -5 10 -11 10 -5 0
-7 -4 -4 -10z"/>
<path d="M650 2021 c0 -6 4 -13 10 -16 6 -3 7 1 4 9 -7 18 -14 21 -14 7z"/>
<path d="M1210 2000 c0 -5 5 -10 10 -10 6 0 10 5 10 10 0 6 -4 10 -10 10 -5 0
-10 -4 -10 -10z"/>
<path d="M1348 1996 c-24 -17 -23 -25 2 -19 25 7 49 33 29 33 -8 0 -22 -7 -31
-14z"/>
<path d="M570 1870 c-13 -8 -13 -10 2 -10 9 0 20 5 23 10 8 13 -5 13 -25 0z"/>
<path d="M695 1860 c3 -5 8 -10 11 -10 2 0 4 5 4 10 0 6 -5 10 -11 10 -5 0 -7
-4 -4 -10z"/>
<path d="M495 1850 c3 -5 8 -10 11 -10 2 0 4 5 4 10 0 6 -5 10 -11 10 -5 0 -7
-4 -4 -10z"/>
<path d="M690 1821 c0 -5 7 -12 16 -15 14 -5 15 -4 4 9 -14 17 -20 19 -20 6z"/>
<path d="M2820 1709 c0 -5 -4 -7 -10 -4 -5 3 -10 1 -10 -4 0 -6 7 -11 15 -11
8 0 15 7 15 15 0 8 -2 15 -5 15 -3 0 -5 -5 -5 -11z"/>
<path d="M2750 1700 c0 -5 7 -7 15 -4 8 4 15 8 15 10 0 2 -7 4 -15 4 -8 0 -15
-4 -15 -10z"/>
<path d="M2540 1511 c0 -7 -4 -10 -9 -7 -5 3 -14 0 -20 -8 -18 -21 29 -30 49
-10 14 15 13 15 -10 4 -23 -12 -24 -12 -11 4 8 9 11 19 7 23 -3 3 -6 1 -6 -6z"/>
<path d="M2635 1480 c4 -6 11 -8 16 -5 14 9 11 15 -7 15 -8 0 -12 -5 -9 -10z"/>
<path d="M2582 1475 c4 -4 3 -16 -3 -27 -6 -11 -9 -22 -6 -24 2 -2 9 7 15 21
9 18 8 26 -1 31 -7 4 -9 4 -5 -1z"/>
<path d="M2390 1418 c0 -7 14 -21 30 -30 l30 -17 -22 30 c-23 31 -38 37 -38
17z"/>
<path d="M2379 1387 c0 -1 -3 -15 -5 -31 l-5 -30 20 25 c18 21 22 22 32 9 8
-12 10 -12 7 -1 -3 11 -46 36 -49 28z"/>
<path d="M2460 1380 c0 -5 7 -7 15 -4 8 4 15 8 15 10 0 2 -7 4 -15 4 -8 0 -15
-4 -15 -10z"/>
<path d="M2511 1353 c0 -11 3 -13 6 -5 2 6 9 12 14 12 6 0 7 -5 3 -12 -4 -7
-3 -8 5 -4 14 9 5 26 -15 26 -8 0 -14 -8 -13 -17z"/>
<path d="M2449 1327 c6 -8 7 -18 3 -22 -4 -5 -1 -5 6 -1 10 6 10 11 1 22 -6 8
-14 14 -16 14 -3 0 0 -6 6 -13z"/>
<path d="M2385 1320 c-3 -5 -2 -10 4 -10 5 0 13 5 16 10 3 6 2 10 -4 10 -5 0
-13 -4 -16 -10z"/>
<path d="M2260 1228 c0 -4 4 -8 9 -8 6 0 12 4 15 8 3 5 -1 9 -9 9 -8 0 -15 -4
-15 -9z"/>
<path d="M2170 1194 c8 -10 15 -20 16 -22 1 -2 4 1 7 5 3 5 -4 15 -16 23 -21
12 -21 12 -7 -6z"/>
<path d="M2090 1190 c0 -5 4 -10 9 -10 6 0 13 5 16 10 3 6 -1 10 -9 10 -9 0
-16 -4 -16 -10z"/>
<path d="M2145 1180 c-3 -5 -1 -10 4 -10 6 0 11 5 11 10 0 6 -2 10 -4 10 -3 0
-8 -4 -11 -10z"/>
<path d="M2140 1151 c0 -10 19 -25 25 -20 1 2 -3 10 -11 17 -8 7 -14 8 -14 3z"/>
<path d="M2177 1145 c3 -8 9 -12 14 -9 12 7 11 11 -5 17 -10 4 -13 1 -9 -8z"/>
<path d="M2255 1139 c-4 -6 -5 -12 -2 -15 2 -3 7 2 10 11 7 17 1 20 -8 4z"/>
<path d="M2096 1113 c18 -19 18 -29 0 -14 -11 9 -16 9 -22 0 -5 -8 -3 -9 6 -4
9 5 11 1 6 -16 -3 -13 -3 -19 0 -12 3 7 11 10 17 7 7 -2 18 5 25 17 10 16 10
19 1 13 -8 -5 -11 -2 -6 8 4 11 -1 16 -18 16 -21 0 -22 -2 -9 -15z"/>
<path d="M2190 1110 c0 -5 5 -10 11 -10 5 0 7 5 4 10 -3 6 -8 10 -11 10 -2 0
-4 -4 -4 -10z"/>
<path d="M2130 1079 c0 -5 5 -7 10 -4 6 3 10 8 10 11 0 2 -4 4 -10 4 -5 0 -10
-5 -10 -11z"/>
<path d="M952 1064 c10 -10 20 -15 24 -12 3 4 -5 12 -18 18 -22 12 -22 12 -6
-6z"/>
<path d="M2166 1071 c-12 -5 -15 -10 -9 -14 6 -4 16 0 23 8 14 17 13 17 -14 6z"/>
<path d="M2100 1047 c0 -26 15 -33 33 -15 9 10 14 18 10 19 -5 0 -16 2 -25 4
-10 2 -18 -2 -18 -8z"/>
<path d="M2176 1033 c-11 -11 -7 -20 9 -20 8 0 15 4 15 8 0 11 -16 20 -24 12z"/>
<path d="M2143 1023 c-7 -3 -13 -11 -13 -20 0 -12 2 -12 16 2 18 17 16 25 -3
18z"/>
<path d="M920 1001 c0 -6 4 -12 8 -15 5 -3 9 1 9 9 0 8 -4 15 -9 15 -4 0 -8
-4 -8 -9z"/>
<path d="M2200 984 c0 -8 -4 -12 -10 -9 -5 3 -10 2 -10 -4 0 -15 23 -26 28
-13 2 7 13 12 25 12 20 0 20 0 1 15 -25 19 -34 19 -34 -1z"/>
<path d="M2260 980 c0 -5 5 -10 11 -10 5 0 7 5 4 10 -3 6 -8 10 -11 10 -2 0
-4 -4 -4 -10z"/>
<path d="M2050 976 c0 -2 7 -6 15 -10 8 -3 15 -1 15 4 0 6 -7 10 -15 10 -8 0
-15 -2 -15 -4z"/>
<path d="M2125 970 c3 -5 8 -10 11 -10 2 0 4 5 4 10 0 6 -5 10 -11 10 -5 0 -7
-4 -4 -10z"/>
<path d="M2091 963 c0 -5 4 -17 9 -28 8 -18 9 -17 9 8 1 15 -3 27 -9 27 -5 0
-10 -3 -9 -7z"/>
<path d="M2145 950 c-3 -5 -1 -10 4 -10 6 0 11 5 11 10 0 6 -2 10 -4 10 -3 0
-8 -4 -11 -10z"/>
<path d="M2060 941 c0 -6 4 -13 10 -16 6 -3 7 1 4 9 -7 18 -14 21 -14 7z"/>
<path d="M1949 927 c-7 -20 -4 -34 7 -34 7 0 11 4 8 8 -2 4 1 9 8 11 8 3 6 7
-5 11 -9 3 -17 5 -18 4z"/>
<path d="M2015 900 c-3 -6 1 -7 9 -4 18 7 21 14 7 14 -6 0 -13 -4 -16 -10z"/>
<path d="M1940 865 c7 -8 5 -12 -5 -12 -8 0 -15 4 -15 8 0 5 -7 6 -16 2 -13
-5 -12 -7 4 -17 11 -6 29 -17 41 -24 11 -7 21 -8 21 -3 0 5 -6 12 -12 15 -14
6 27 0 59 -9 10 -3 1 3 -20 12 -26 13 -35 21 -27 29 7 7 3 10 -15 10 -17 0
-21 -3 -15 -11z"/>
<path d="M1075 800 c3 -5 8 -10 11 -10 2 0 4 5 4 10 0 6 -5 10 -11 10 -5 0 -7
-4 -4 -10z"/>
<path d="M1150 776 c0 -2 7 -7 16 -10 8 -3 12 -2 9 4 -6 10 -25 14 -25 6z"/>
<path d="M2080 760 c0 -5 5 -10 10 -10 6 0 10 5 10 10 0 6 -4 10 -10 10 -5 0
-10 -4 -10 -10z"/>
<path d="M1991 693 c7 -12 15 -20 18 -17 3 2 -3 12 -13 22 -17 16 -18 16 -5
-5z"/>
<path d="M1356 683 c-6 -14 -5 -15 5 -6 7 7 10 15 7 18 -3 3 -9 -2 -12 -12z"/>
<path d="M1260 690 c-8 -26 -7 -41 2 -32 6 6 8 16 5 24 -3 7 -6 11 -7 8z"/>
<path d="M1371 624 c0 -11 3 -14 6 -6 3 7 2 16 -1 19 -3 4 -6 -2 -5 -13z"/>
<path d="M1420 620 c0 -5 5 -10 11 -10 5 0 7 5 4 10 -3 6 -8 10 -11 10 -2 0
-4 -4 -4 -10z"/>
<path d="M1825 610 c-3 -5 -3 -10 2 -10 4 0 1 -4 -7 -10 -9 -5 -19 -5 -27 2
-8 6 -16 9 -19 6 -2 -3 6 -12 20 -21 21 -14 25 -14 30 -2 3 8 12 15 20 15 8 0
18 4 21 10 4 6 -1 7 -11 3 -12 -4 -15 -3 -10 5 4 7 3 12 -3 12 -5 0 -13 -4
-16 -10z"/>
<path d="M1755 572 c1 -9 8 -33 17 -52 11 -28 15 -31 21 -17 4 11 3 16 -3 12
-6 -3 -10 1 -10 9 0 8 5 18 10 21 13 8 5 22 -19 34 -14 8 -17 6 -16 -7z m25
-22 c0 -5 -2 -10 -4 -10 -3 0 -8 5 -11 10 -3 6 -1 10 4 10 6 0 11 -4 11 -10z"/>
<path d="M1430 551 c0 -6 4 -13 10 -16 6 -3 7 1 4 9 -7 18 -14 21 -14 7z"/>
<path d="M1400 531 c0 -5 5 -13 10 -16 6 -3 10 -2 10 4 0 5 -4 13 -10 16 -5 3
-10 2 -10 -4z"/>
<path d="M1826 495 c-3 -8 -1 -15 4 -15 6 0 10 7 10 15 0 8 -2 15 -4 15 -2 0
-6 -7 -10 -15z"/>
<path d="M1473 455 c0 -8 4 -12 9 -9 5 3 6 10 3 15 -9 13 -12 11 -12 -6z"/>
<path d="M1519 431 c8 -5 12 -18 8 -30 -7 -27 9 -27 24 0 8 15 8 19 0 15 -6
-4 -11 0 -11 8 0 9 -8 16 -17 16 -14 0 -15 -2 -4 -9z"/>
<path d="M1496 394 c-8 -21 -8 -24 5 -24 5 0 7 5 4 10 -3 6 -1 10 4 10 6 0 11
5 11 10 0 16 -17 12 -24 -6z"/>
<path d="M1530 360 c0 -5 7 -10 16 -10 8 0 12 5 9 10 -3 6 -10 10 -16 10 -5 0
-9 -4 -9 -10z"/>
<path d="M1494 343 c4 -22 20 -32 32 -19 8 9 5 15 -11 23 -18 8 -22 7 -21 -4z"/>
<path d="M1754 352 c4 -7 3 -12 -3 -12 -6 0 -15 -9 -21 -20 -7 -14 -7 -20 0
-20 5 0 10 5 10 11 0 7 7 17 17 24 13 9 13 14 3 20 -9 5 -11 4 -6 -3z"/>
<path d="M1500 280 c0 -5 5 -10 11 -10 5 0 7 5 4 10 -3 6 -8 10 -11 10 -2 0
-4 -4 -4 -10z"/>
<path d="M1556 281 c-4 -6 -3 -11 2 -11 6 0 19 -16 31 -35 11 -19 26 -33 33
-31 7 1 10 1 6 -1 -9 -6 2 -33 14 -33 5 0 6 5 3 10 -3 6 -1 10 5 10 7 0 9 8 5
19 -3 11 -1 22 5 26 21 13 9 24 -15 13 -19 -8 -22 -14 -13 -20 19 -11 0 -10
-23 2 -26 14 -24 29 4 24 13 -3 10 0 -8 7 -16 7 -33 16 -36 22 -4 5 -9 5 -13
-2z"/>
<path d="M1570 224 c1 -5 7 -20 14 -33 10 -18 14 -20 19 -8 3 8 -3 23 -14 33
-10 9 -19 13 -19 8z"/>
<path d="M1555 189 c-9 -14 -2 -20 14 -10 8 6 9 11 3 15 -6 3 -14 1 -17 -5z"/>
<path d="M1600 160 c-11 -7 -11 -10 -2 -10 7 0 12 -7 10 -16 -2 -10 3 -19 11
-22 9 -3 12 0 9 10 -5 11 1 13 22 10 25 -4 28 -1 23 18 -3 13 -11 19 -19 16
-8 -3 -21 -9 -31 -13 -11 -4 -14 -3 -9 5 9 14 6 15 -14 2z"/>
<path d="M1560 139 c0 -5 5 -7 10 -4 6 3 10 8 10 11 0 2 -4 4 -10 4 -5 0 -10
-5 -10 -11z"/>
</g>
</svg>
